<svg width="200" height="44" viewBox="0 0 200 44" fill="none" xmlns="http://www.w3.org/2000/svg">
<g clip-path="url(#clip0_1372_155243)">
<path d="M40.2981 14.479L29.3208 3.4882C28.0208 2.25923 26.4723 1.32341 24.7798 0.743863C21.0294 -0.504789 17.2969 0.469872 14.2741 3.4882L3.26975 14.479C2.04079 15.779 1.10496 17.3275 0.525412 19.02C-0.727732 22.7705 0.246936 26.5029 3.26975 29.5213L14.2606 40.5121C15.5585 41.7415 17.1056 42.6775 18.7971 43.2564C19.8217 43.6028 20.8955 43.7818 21.9771 43.7864C24.6136 43.7864 27.1379 42.6725 29.3028 40.5121L40.2892 29.5213C41.5197 28.2217 42.4571 26.6732 43.038 24.9803C44.2866 21.2298 43.312 17.5019 40.2892 14.479H40.2981ZM22.6284 6.6772C23.4587 6.9434 24.2238 7.38105 24.8741 7.9618L28.1215 11.2137L21.7884 17.5423L15.4553 11.2092L18.7207 7.93933C19.5966 7.06797 20.8317 6.1427 22.6373 6.67271L22.6284 6.6772ZM6.46774 21.149C6.73478 20.3181 7.17403 19.5529 7.75682 18.9032L11.0042 15.6558L17.3373 21.9889L10.9997 28.322L7.73436 25.0522C6.85851 24.1808 5.93774 22.9456 6.46325 21.14L6.46774 21.149ZM20.9395 37.3096C20.1082 37.0458 19.3426 36.6079 18.6938 36.025L15.4553 32.8136L21.7884 26.476L28.1215 32.8091L24.8562 36.0789C23.9803 36.9503 22.7496 37.8755 20.9395 37.3455V37.3096ZM37.1091 22.8693C36.8422 23.6992 36.4046 24.4642 35.8245 25.115L32.5772 28.322L26.2441 21.9889L32.5772 15.6558L35.8425 18.9212C36.7184 19.7926 37.6391 21.0277 37.1136 22.8333" fill="#00ADE4"/>
<path d="M64.0001 37.4761H69.673V21.7331C69.673 16.8778 66.722 13.2935 61.687 13.2935C59.2346 13.2935 56.607 14.3805 55.2416 16.3792V4.70117H49.5732V37.4626H55.2416V25.0434C55.2416 22.1419 56.6968 18.5127 60.097 18.5127C63.0928 18.5127 64.0001 20.1881 64.0001 22.9144V37.4761ZM86.9071 28.1651C86.9071 31.628 84.4322 33.519 80.9243 33.519C79.1681 33.519 77.5916 32.3961 77.5916 30.595C77.5916 28.704 79.2579 27.671 80.9692 27.5362L86.9071 27.0871V28.1651ZM91.6322 37.8399C92.6003 37.8715 93.5605 37.655 94.4214 37.2111V33.0698C94.1858 33.1253 93.9448 33.1554 93.7028 33.1597C92.7596 33.1597 92.4002 32.7554 92.4002 31.673V22.9908C92.471 21.3872 92.241 19.7846 91.722 18.2657C90.3745 14.7533 86.952 13.4956 82.95 13.4956C77.7263 13.4956 73.5402 15.8357 73.2258 21.0998H78.674C78.8088 18.9394 80.3359 17.7716 82.95 17.7716C86.1435 17.7716 86.9071 19.2538 86.9071 21.4592V22.901L80.017 23.3815C75.5614 23.696 72.0984 26.2606 72.0984 30.7163C72.0984 34.5431 74.9775 38.051 80.5605 38.051C83.8887 38.051 86.5882 36.434 87.6706 34.5431C87.8503 36.2993 89.1978 37.8264 91.6277 37.8264L91.6322 37.8399ZM109.306 19.0607C109.607 19.0629 109.907 19.0824 110.205 19.1191V13.819C109.962 13.819 109.72 13.7651 109.482 13.7651C106.733 13.7651 103.944 14.888 102.866 17.5874L102.367 14.0795H97.5925V37.4805H103.265V25.6902C103.265 21.9083 105.336 19.0742 109.293 19.0742L109.306 19.0607ZM127.057 37.4895H132.685V21.8634C132.685 17.0035 129.756 13.4956 124.762 13.4956C122.067 13.4956 119.273 14.6185 117.876 17.0889L117.472 14.075H112.76V37.4761H118.384V27.9405C118.384 25.9597 118.339 23.5298 119.152 21.6837C119.915 19.9725 121.223 18.7148 123.194 18.7148C126.163 18.7148 127.062 20.3812 127.062 23.1255L127.057 37.4895ZM151.154 23.4489H141.039C141.014 22.1295 141.444 20.8418 142.257 19.8018C142.724 19.2179 143.322 18.7514 144.002 18.4394C144.682 18.1275 145.425 17.9788 146.173 18.0052C146.826 17.9702 147.48 18.0721 148.092 18.3041C148.703 18.5361 149.26 18.8932 149.726 19.3526C150.624 20.3453 151.123 21.6927 151.168 23.4489H151.154ZM156.791 25.9687C156.881 23.0447 156.477 20.3902 154.765 17.821C152.834 14.897 149.681 13.5046 146.232 13.5046C144.849 13.4643 143.473 13.7068 142.188 14.2174C140.903 14.7279 139.735 15.4957 138.758 16.4735C136.512 18.7687 135.384 22.097 135.384 25.8339C135.384 29.6607 136.642 32.9441 138.978 35.1943C139.954 36.1422 141.111 36.8852 142.379 37.3797C143.647 37.8741 145.001 38.11 146.362 38.0734C149.331 38.0734 152.255 37.1302 154.235 34.7901C155.134 33.7076 156.082 31.8661 156.216 30.4692H150.826C150.637 31.2195 150.247 31.9042 149.699 32.45C148.891 33.2585 147.902 33.5729 146.281 33.5729C144.981 33.5686 143.735 33.0522 142.813 32.1356C142.231 31.5272 141.779 30.8062 141.484 30.0169C141.19 29.2276 141.06 28.3865 141.102 27.5452H156.746C156.746 27.0467 156.791 25.9687 156.791 25.9687ZM164.346 20.6148C164.359 20.0688 164.538 19.5398 164.859 19.0978C165.18 18.6558 165.628 18.3218 166.143 18.1399C166.918 17.8492 167.746 17.7267 168.573 17.7806C169.69 17.7494 170.78 18.1335 171.631 18.8586C172.22 19.4437 172.558 20.2344 172.575 21.0639H177.933C177.866 19.2572 177.127 17.5405 175.862 16.249C174.156 14.3984 171.321 13.5001 168.532 13.5001C165.604 13.5001 163.142 14.3535 161.422 15.8402C160.654 16.4816 160.04 17.2881 159.627 18.1995C159.215 19.111 159.013 20.104 159.037 21.1043C159.037 24.0732 161.197 26.6828 164.391 27.3611C166.461 27.8102 168.802 27.945 170.872 28.2594C172.31 28.484 173.212 29.3823 173.212 30.7342C173.212 33.2989 170.333 33.7031 168.442 33.7031C166.821 33.7031 165.788 33.3887 164.885 32.6701C164.263 32.1129 163.845 31.3633 163.699 30.5411H158.399C158.617 32.387 159.479 34.097 160.834 35.3695C162.769 37.2155 165.424 38.0644 168.397 38.0644C171.591 38.0644 174.515 37.256 176.406 35.3695C177.078 34.6981 177.605 33.8962 177.955 33.0133C178.305 32.1303 178.47 31.185 178.44 30.2357C178.44 26.5436 175.746 24.2035 172.049 23.6196C169.754 23.2603 169.17 23.2154 167.054 22.9459C165.797 22.7662 164.359 22.2676 164.359 20.6058L164.346 20.6148ZM194.165 21.0549H199.506C199.439 19.2483 198.7 17.5315 197.435 16.24C195.724 14.3984 192.89 13.5001 190.119 13.5001C187.195 13.5001 184.729 14.3535 183.008 15.8402C182.24 16.4816 181.627 17.2881 181.214 18.1995C180.801 19.111 180.599 20.104 180.623 21.1043C180.623 24.0732 182.784 26.6828 185.977 27.3611C188.048 27.8102 190.388 27.945 192.459 28.2594C193.896 28.484 194.799 29.3823 194.799 30.7342C194.799 33.2989 191.915 33.7031 190.029 33.7031C188.407 33.7031 187.374 33.3887 186.471 32.6701C185.849 32.1129 185.432 31.3633 185.286 30.5411H179.968C180.185 32.3881 181.049 34.0986 182.407 35.3695C184.338 37.2155 186.992 38.0644 189.966 38.0644C193.159 38.0644 196.083 37.256 197.974 35.3695C198.644 34.6974 199.17 33.8951 199.518 33.0122C199.867 32.1293 200.031 31.1844 200 30.2357C200 26.5436 197.305 24.2035 193.608 23.6196C191.313 23.2603 190.729 23.2154 188.614 22.9459C187.356 22.7662 185.919 22.2676 185.919 20.6058C185.932 20.0598 186.111 19.5308 186.432 19.0888C186.753 18.6469 187.201 18.3128 187.716 18.1309C188.491 17.8402 189.319 17.7177 190.145 17.7716C191.263 17.7405 192.353 18.1245 193.204 18.8496C193.794 19.4343 194.133 20.2248 194.152 21.0549" fill="#231F20"/>
</g>
<defs>
<clipPath id="clip0_1372_155243">
<rect width="200" height="43.5726" fill="white" transform="translate(0 0.213867)"/>
</clipPath>
</defs>
</svg>
